<?xml version="1.0" encoding="UTF-8"?>
<svg xmlns="http://www.w3.org/2000/svg" viewBox="-10 120 480 330" role="img" aria-labelledby="title desc">
  <title id="title">An open notebook with action items, a closed companion notebook, a mug, and a pencil — meetings turning into decisions.</title>
  <desc id="desc">Decorative composition complementing the AI Secretary headline.</desc>
  <style>
    .ink     { stroke:#09090b; fill:none; stroke-width:2; stroke-linecap:round; stroke-linejoin:round; }
    .ink-soft{ stroke:#09090b; fill:none; stroke-width:1.5; stroke-linecap:round; opacity:.6; }
    .paper   { fill:#ffffff; stroke:#09090b; stroke-width:2; }
    .paper-soft{ fill:#ffffff; stroke:#09090b; stroke-width:1.5; opacity:.85; }
    .accent  { fill:#4f46e5; }
    .muted   { fill:#6e6e76; opacity:.16; }
    @media (prefers-color-scheme: dark) {
      .ink     { stroke:#fafafa; }
      .ink-soft{ stroke:#fafafa; opacity:.55; }
      .paper   { fill:#15151a; stroke:#fafafa; }
      .paper-soft{ fill:#15151a; stroke:#fafafa; opacity:.8; }
      .accent  { fill:#818cf8; }
      .muted   { fill:#a0a0ab; opacity:.18; }
    }
  </style>

  <!-- shadow -->
  <ellipse class="muted" cx="260" cy="430" rx="240" ry="12"/>

  <!-- Open notebook -->
  <g transform="translate(60 140)">
    <path class="paper" d="M0 0 L160 -8 L160 200 L0 208 Z"/>
    <path class="paper" d="M160 -8 L320 0 L320 208 L160 200 Z"/>
    <line class="ink-soft" x1="160" y1="-8" x2="160" y2="200"/>
    <!-- left page lines -->
    <line class="ink" x1="20" y1="32" x2="118" y2="28" opacity=".75"/>
    <line class="ink-soft" x1="20" y1="56" x2="138" y2="54"/>
    <line class="ink-soft" x1="20" y1="76" x2="124" y2="74"/>
    <line class="ink-soft" x1="20" y1="96" x2="146" y2="94"/>
    <!-- decision callout -->
    <rect class="accent" x="20" y="124" width="6" height="40"/>
    <line class="ink" x1="36" y1="138" x2="138" y2="136" opacity=".85"/>
    <line class="ink-soft" x1="36" y1="156" x2="118" y2="155"/>
    <!-- right page checklist -->
    <g transform="translate(176 30)">
      <rect class="paper-soft" x="0" y="0" width="12" height="12" rx="2"/>
      <line class="ink-soft" x1="22" y1="6" x2="118" y2="5"/>
      <rect class="accent" x="0" y="22" width="12" height="12" rx="2"/>
      <path d="M2 28 L5 31 L10 24" stroke="#ffffff" stroke-width="1.6" fill="none" stroke-linecap="round" stroke-linejoin="round"/>
      <line class="ink-soft" x1="22" y1="28" x2="124" y2="27" opacity=".5"/>
      <rect class="paper-soft" x="0" y="44" width="12" height="12" rx="2"/>
      <line class="ink-soft" x1="22" y1="50" x2="108" y2="49"/>
      <rect class="paper-soft" x="0" y="66" width="12" height="12" rx="2"/>
      <line class="ink-soft" x1="22" y1="72" x2="132" y2="71"/>
      <rect class="paper-soft" x="0" y="88" width="12" height="12" rx="2"/>
      <line class="ink-soft" x1="22" y1="94" x2="100" y2="93"/>
      <line class="ink-soft" x1="0" y1="146" x2="80" y2="145" opacity=".4"/>
    </g>
  </g>

  <!-- Closed companion notebook -->
  <g transform="translate(400 170)">
    <rect class="paper" x="0" y="0" width="60" height="180" rx="2"/>
    <line class="ink" x1="8" y1="0" x2="8" y2="180" opacity=".6"/>
    <rect class="accent" x="38" y="0" width="4" height="34"/>
    <polygon class="accent" points="38,34 42,34 40,38"/>
  </g>

  <!-- Mug -->
  <g transform="translate(0 320)">
    <path class="paper" d="M0 0 L0 60 Q0 72 12 72 L52 72 Q64 72 64 60 L64 0 Z"/>
    <line class="ink" x1="0" y1="10" x2="64" y2="10"/>
    <path class="ink" d="M64 18 Q86 22 86 38 Q86 54 64 56"/>
  </g>

  <!-- Pencil -->
  <g transform="translate(60 402)">
    <line class="ink" x1="0" y1="0" x2="180" y2="-2" stroke-width="2.6"/>
    <line class="ink" x1="148" y1="-3" x2="148" y2="3"/>
    <line class="ink" x1="156" y1="-3" x2="156" y2="3"/>
    <polygon points="180,-3 192,-2 180,3" fill="#09090b"/>
  </g>
</svg>
